# This file uses centimeters as units for non-parametric coordinates.

mtllib full tile.mtl
g default
v -4.983486 -0.049835 4.983486
v 4.983486 -0.049835 4.983486
v -4.983486 0.049835 4.983486
v 4.983486 0.049835 4.983486
v -4.983486 0.049835 -4.983486
v 4.983486 0.049835 -4.983486
v -4.983486 -0.049835 -4.983486
v 4.983486 -0.049835 -4.983486
vt 0.375000 0.000000
vt 0.625000 0.000000
vt 0.375000 0.250000
vt 0.625000 0.250000
vt 0.375000 0.500000
vt 0.625000 0.500000
vt 0.375000 0.750000
vt 0.625000 0.750000
vt 0.375000 1.000000
vt 0.625000 1.000000
vt 0.875000 0.000000
vt 0.875000 0.250000
vt 0.125000 0.000000
vt 0.125000 0.250000
vn 0.000000 0.000000 1.000000
vn 0.000000 0.000000 1.000000
vn 0.000000 0.000000 1.000000
vn 0.000000 0.000000 1.000000
vn 0.000000 1.000000 0.000000
vn 0.000000 1.000000 0.000000
vn 0.000000 1.000000 0.000000
vn 0.000000 1.000000 0.000000
vn 0.000000 0.000000 -1.000000
vn 0.000000 0.000000 -1.000000
vn 0.000000 0.000000 -1.000000
vn 0.000000 0.000000 -1.000000
vn 0.000000 -1.000000 0.000000
vn 0.000000 -1.000000 0.000000
vn 0.000000 -1.000000 0.000000
vn 0.000000 -1.000000 0.000000
vn 1.000000 0.000000 0.000000
vn 1.000000 0.000000 0.000000
vn 1.000000 0.000000 0.000000
vn 1.000000 0.000000 0.000000
vn -1.000000 0.000000 0.000000
vn -1.000000 0.000000 0.000000
vn -1.000000 0.000000 0.000000
vn -1.000000 0.000000 0.000000
s off
g full_tile
usemtl initialShadingGroup
f 2/2/1 4/4/2 3/3/3 1/1/4
f 3/3/5 4/4/6 6/6/7 5/5/8
f 6/6/9 8/8/10 7/7/11 5/5/12
f 8/8/13 2/10/14 1/9/15 7/7/16
f 2/2/17 8/11/18 6/12/19 4/4/20
f 7/13/21 1/1/22 3/3/23 5/14/24
