# This file uses centimeters as units for non-parametric coordinates.

mtllib split tile.mtl
g default
v -4.983486 -0.049835 4.983486
v 4.983486 -0.049835 4.983486
v -4.983486 0.049835 4.983486
v 4.983486 0.049835 4.983486
v -4.983486 0.049835 -4.983486
v 4.983486 0.049835 -4.983486
v -4.983486 -0.049835 -4.983486
v 4.983486 -0.049835 -4.983486
v -1.707687 -0.049835 4.983486
v 1.651851 -0.049835 4.983486
v 1.651851 -0.049835 -4.983486
v -1.707687 -0.049835 -4.983486
v 1.651851 0.049835 -4.983486
v -1.707687 0.049835 -4.983486
v 1.651851 0.049835 4.983486
v -1.707687 0.049835 4.983486
vt 0.625000 0.000000
vt 0.875000 0.000000
vt 0.875000 0.250000
vt 0.125000 0.000000
vt 0.125000 0.250000
vt 0.457166 0.000000
vt 0.541433 1.000000
vt 0.541433 0.000000
vt 0.625000 0.250000
vt 0.541433 0.250000
vt 0.625000 0.500000
vt 0.541433 0.500000
vt 0.625000 0.750000
vt 0.541433 0.750000
vt 0.625000 1.000000
vt 0.375000 0.750000
vt 0.457166 1.000000
vt 0.375000 1.000000
vt 0.375000 0.500000
vt 0.457166 0.750000
vt 0.375000 0.250000
vt 0.457166 0.500000
vt 0.375000 0.000000
vt 0.457166 0.250000
vn 1.000000 0.000000 0.000000
vn 1.000000 0.000000 0.000000
vn 1.000000 0.000000 0.000000
vn 1.000000 0.000000 0.000000
vn -1.000000 0.000000 0.000000
vn -1.000000 0.000000 0.000000
vn -1.000000 0.000000 0.000000
vn -1.000000 0.000000 0.000000
vn 0.000000 0.000000 1.000000
vn 0.000000 0.000000 1.000000
vn 0.000000 0.000000 1.000000
vn 0.000000 0.000000 1.000000
vn 0.000000 1.000000 0.000000
vn 0.000000 1.000000 0.000000
vn 0.000000 1.000000 0.000000
vn 0.000000 1.000000 0.000000
vn 0.000000 0.000000 -1.000000
vn 0.000000 0.000000 -1.000000
vn 0.000000 0.000000 -1.000000
vn 0.000000 0.000000 -1.000000
vn 0.000000 -1.000000 0.000000
vn 0.000000 -1.000000 0.000000
vn 0.000000 -1.000000 0.000000
vn 0.000000 -1.000000 0.000000
vn 0.000000 -1.000000 0.000000
vn 0.000000 -1.000000 0.000000
vn 0.000000 -1.000000 0.000000
vn 0.000000 -1.000000 0.000000
vn 0.000000 0.000000 -1.000000
vn 0.000000 0.000000 -1.000000
vn 0.000000 0.000000 -1.000000
vn 0.000000 0.000000 -1.000000
vn 0.000000 1.000000 0.000000
vn 0.000000 1.000000 0.000000
vn 0.000000 1.000000 0.000000
vn 0.000000 1.000000 0.000000
vn 0.000000 0.000000 1.000000
vn 0.000000 0.000000 1.000000
vn 0.000000 0.000000 1.000000
vn 0.000000 0.000000 1.000000
vn 1.000000 0.000000 0.000000
vn 1.000000 0.000000 0.000000
vn 1.000000 0.000000 0.000000
vn 1.000000 0.000000 0.000000
vn -1.000000 0.000000 0.000000
vn -1.000000 0.000000 0.000000
vn -1.000000 0.000000 0.000000
vn -1.000000 0.000000 0.000000
s off
g split_tile
usemtl initialShadingGroup
f 2/1/1 8/2/2 6/3/3 4/9/4
f 7/4/5 1/23/6 3/21/7 5/5/8
f 15/10/9 10/8/10 2/1/11 4/9/12
f 13/12/13 15/10/14 4/9/15 6/11/16
f 11/14/17 13/12/18 6/11/19 8/13/20
f 10/7/21 11/14/22 8/13/23 2/15/24
f 7/16/25 12/20/26 9/17/27 1/18/28
f 5/19/29 14/22/30 12/20/31 7/16/32
f 3/21/33 16/24/34 14/22/35 5/19/36
f 1/23/37 9/6/38 16/24/39 3/21/40
f 9/17/41 12/20/42 14/22/43 16/24/44
f 15/10/45 13/12/46 11/14/47 10/8/48
